<svg xmlns="http://www.w3.org/2000/svg" xmlns:xlink="http://www.w3.org/1999/xlink" version="1.1" width="52.31341552734375" height="67.9106330871582" viewBox="-1.067457675933838 -4.517757773399353 52.31341552734375 67.9106330871582">
  <!-- Exported by Scratch - http://scratch.mit.edu/ -->
  <path id="ID0.8794022905640304" fill="none" stroke="#C8C7C7" stroke-width="10.623115539550781" d="M 25.09 12.0295 C 28.0512 12.0295 30.7344 13.2326 32.6776 15.1757 C 34.6207 17.1189 35.8238 19.8021 35.8238 22.7633 C 35.8238 25.7245 34.6207 28.4077 32.6776 30.3509 C 30.7344 32.294 28.0512 33.4971 25.09 33.4971 C 22.1288 33.4971 19.4456 32.294 17.5025 30.3509 C 15.5593 28.4077 14.3562 25.7245 14.3562 22.7633 C 14.3562 19.8021 15.5593 17.1189 17.5025 15.1757 C 19.4456 13.2326 22.1288 12.0295 25.09 12.0295 Z "/>
  <text id="ID0.9841455523855984" fill="#F3F3F3" text-anchor="start" font-family="Sans Serif" font-size="22" transform="matrix(0.406199 0 0 0.406199 9.0624 44.9814)" stroke-width="1" alignment-baseline="text-before-edge" xml:space="preserve"><tspan x="0" style="white-space: pre" dy="1.13em">Settings</tspan></text>
  <g id="ID0.19740943936631083">
    <path id="ID0.4458013568073511" fill="#C8C7C7" stroke="none" stroke-linecap="round" d="M 21.3116 0.7938 L 29.229 0.8268 L 29.7568 1.2227 L 30.9114 6.6329 L 35.332 9.404 L 31.3073 11.9111 L 27.6125 10.3277 L 23.9178 10.5916 L 20.6189 11.2513 L 19.2663 6.6659 L 20.7178 1.1237 L 21.3116 0.7938 Z " stroke-width="0.1319558600714572"/>
    <path id="ID0.4458013568073511" fill="#C8C7C7" stroke="none" stroke-linecap="round" d="M 41.8817 8.1483 L 45.8041 15.0258 L 45.7245 15.6807 L 41.6123 19.3812 L 41.4169 24.5948 L 37.2358 22.3582 L 36.7642 18.3662 L 34.6917 15.2961 L 30.5897 11.24 L 34.0235 9.5215 L 35.7724 9.3062 L 41.2995 7.7983 L 41.8817 8.1483 Z " stroke-width="0.1319558605497269"/>
    <path id="ID0.4458013568073511" fill="#C8C7C7" stroke="none" stroke-linecap="round" d="M 45.9238 29.7527 L 41.9429 36.5965 L 41.3364 36.8562 L 36.0721 35.1559 L 31.1706 37.5708 L 31.301 32.864 L 34.5175 30.453 L 36.1332 27.1198 L 37.5834 21.5364 L 40.793 23.6443 L 41.8568 25.0491 L 45.9344 29.0735 L 45.9238 29.7527 Z " stroke-width="0.1319558590056936"/>
    <path id="ID0.4458013568073511" fill="#C8C7C7" stroke="none" stroke-linecap="round" d="M 28.7866 43.9348 L 20.8698 43.8326 L 20.3455 43.4321 L 19.2267 37.8206 L 14.5069 35.0477 L 18.8885 32.7305 L 22.5693 34.3462 L 26.2662 34.1147 L 31.8413 32.6327 L 31.5835 36.4639 L 30.8831 38.0809 L 29.3832 43.6101 L 28.7866 43.9348 Z " stroke-width="0.1319558674786869"/>
    <path id="ID0.4458013568073511" fill="#C8C7C7" stroke="none" stroke-linecap="round" d="M 8.3248 36.4422 L 4.2441 29.6574 L 4.3085 29.0008 L 8.69 24.712 L 8.6892 19.3712 L 12.6402 22.1284 L 13.2042 26.1084 L 15.3473 29.1297 L 19.5422 33.0896 L 16.1491 34.8872 L 14.4056 35.143 L 8.915 36.7785 L 8.3248 36.4422 Z " stroke-width="0.1319558581406226"/>
    <path id="ID0.4458013568073511" fill="#C8C7C7" stroke="none" stroke-linecap="round" d="M 4.4196 14.7759 L 8.4005 7.9321 L 9.007 7.6723 L 14.2713 9.3726 L 19.9284 6.4261 L 21.7743 10.4515 L 15.8259 14.0755 L 14.2102 17.4087 L 12.76 22.9922 L 9.5504 20.8842 L 8.4866 19.4794 L 4.409 15.4551 L 4.4196 14.7759 Z " stroke-width="0.1319558622982729"/>
  </g>
  <path id="ID0.8102423311211169" fill="none" stroke="#F0F0F0" stroke-width="3.5410385131835938" d="M 25.1809 11.5951 C 28.2342 11.5951 31.0006 12.8353 33.0031 14.8386 C 35.0064 16.8411 36.2467 19.6075 36.2467 22.6608 C 36.2467 25.7141 35.0064 28.4805 33.0031 30.483 C 31.0006 32.4863 28.2342 33.7265 25.1809 33.7265 C 22.1277 33.7265 19.3612 32.4863 17.3588 30.483 C 15.3554 28.4805 14.1152 25.7141 14.1152 22.6608 C 14.1152 19.6075 15.3554 16.8411 17.3588 14.8386 C 19.3612 12.8353 22.1277 11.5951 25.1809 11.5951 Z "/>
</svg>