<svg xmlns="http://www.w3.org/2000/svg" xmlns:xlink="http://www.w3.org/1999/xlink" version="1.1" width="43.86759948730469" height="58.21351623535156" viewBox="-0.24970000982284546 -0.1321999728679657 43.86759948730469 58.21351623535156">
  <defs>
    <linearGradient id="grad_1" y2="1" x2="0">
      <stop offset="0" stop-color="#15161B" stop-opacity="1"/>
      <stop offset="1" stop-color="#2E2D36" stop-opacity="1"/>
    </linearGradient>
  <linearGradient id="grad_1-.24493178725242615,0,0,0.24493178725242615,-37.15,-18.65" y2="40.501" x2="3.0188" x1="3.0188" y1="3.1489" gradientUnits="userSpaceOnUse">
      <stop offset="0" stop-color="#15161B" stop-opacity="1"/>
      <stop offset="1" stop-color="#2E2D36" stop-opacity="1"/>
    </linearGradient></defs>
  <!-- Exported by Scratch - http://scratch.mit.edu/ -->
  <path id="ID0.30362788448110223" fill="#F6F4F1" stroke="none" d="M 21.6841 0.3678 C 27.5976 0.3678 32.9559 2.7695 36.8362 6.6496 C 40.7162 10.5299 43.1179 15.8882 43.1179 21.8017 C 43.1179 27.7151 40.7162 33.0735 36.8362 36.9538 C 32.9559 40.8338 27.5976 43.2355 21.6841 43.2355 C 15.7706 43.2355 10.4123 40.8338 6.532 36.9538 C 2.652 33.0735 0.2503 27.7151 0.2503 21.8017 C 0.2503 15.8882 2.652 10.5299 6.532 6.6496 C 10.4123 2.7695 15.7706 0.3678 21.6841 0.3678 Z " stroke-width="0.2810992896556854"/>
  <path id="ID0.30362788448110223" fill="url(#grad_1-.24493178725242615,0,0,0.24493178725242615,-37.15,-18.65)" stroke="none" d="M 21.6949 3.1489 C 26.8475 3.1489 31.5164 5.2416 34.8974 8.6224 C 38.2782 12.0035 40.3709 16.6723 40.3709 21.825 C 40.3709 26.9776 38.2782 31.6465 34.8974 35.0275 C 31.5164 38.4083 26.8475 40.501 21.6949 40.501 C 16.5422 40.501 11.8733 38.4083 8.4923 35.0275 C 5.1115 31.6465 3.0188 26.9776 3.0188 21.825 C 3.0188 16.6723 5.1115 12.0035 8.4923 8.6224 C 11.8733 5.2416 16.5422 3.1489 21.6949 3.1489 Z " stroke-width="0.24493178725242615"/>
  <path id="ID0.9124296265654266" fill="#FFFFFF" stroke="none" stroke-linecap="round" d="M 8.8753 12.8192 L 26.3714 22.8309 L 24.8773 24.0737 L 7.828 14.425 L 8.8753 12.8192 Z " stroke-width="0.2792680263519287"/>
  <path id="ID0.13609845330938697" fill="#9F2E1F" stroke="none" d="M 21.2329 23.3341 L 22.35 23.3341 L 22.35 39.3163 L 21.2329 39.3163 L 21.2329 23.3341 Z " stroke-width="0.2550685723995882"/>
  <path id="ID0.9124296265654266" fill="#FFFFFF" stroke="none" stroke-linecap="round" d="M 37.1223 12.371 L 17.8668 22.3688 L 18.9978 24.1142 L 37.625 13.7534 L 37.1223 12.371 Z " stroke-width="0.2792680263519287"/>
  <path id="ID0.8512692432850599" fill="#F2F2F2" stroke="none" d="M 21.8302 19.9513 C 22.331 19.9513 22.7848 20.1546 23.1135 20.4833 C 23.4422 20.8119 23.6455 21.2657 23.6455 21.7665 C 23.6455 22.2673 23.4422 22.7211 23.1135 23.0498 C 22.7848 23.3784 22.331 23.5817 21.8302 23.5817 C 21.3295 23.5817 20.8757 23.3784 20.547 23.0498 C 20.2183 22.7211 20.015 22.2673 20.015 21.7665 C 20.015 21.2657 20.2183 20.8119 20.547 20.4833 C 20.8757 20.1546 21.3295 19.9513 21.8302 19.9513 Z " stroke-width="0.24203228950500488"/>
  <text id="ID0.9841455523855984" fill="#FFFFFF" text-anchor="start" font-family="Sans Serif" font-size="22" transform="matrix(0.406199 0 0 0.406199 8.5624 44.4814)" stroke-width="1" alignment-baseline="text-before-edge" xml:space="preserve"><tspan x="0" style="white-space: pre" dy="1.13em">Clock</tspan></text>
</svg>