<svg version="1.1" xmlns="http://www.w3.org/2000/svg" xmlns:xlink="http://www.w3.org/1999/xlink" width="502.95" height="430.2092" viewBox="0,0,502.95,430.2092"><g transform="translate(14.95,0)"><g data-paper-data="{&quot;isPaintingLayer&quot;:true}" fill-rule="nonzero" stroke="none" stroke-linecap="butt" stroke-linejoin="miter" stroke-miterlimit="10" stroke-dasharray="" stroke-dashoffset="0" style="mix-blend-mode: normal"><path d="M0,0h480v330h-480z" fill="#e5e5e5" stroke-width="1"/><path d="M-14.95,322.3592h502.95v107.85h-502.95z" fill="#000000" stroke-width="1.88494"/><text transform="translate(140.555,93.17035) scale(2.77746,2.77746)" font-size="22" xml:space="preserve" fill="#4087f4" fill-rule="nonzero" stroke="none" stroke-width="1" stroke-linecap="butt" stroke-linejoin="miter" stroke-miterlimit="10" stroke-dasharray="" stroke-dashoffset="0" font-family="Serif" font-weight="400" text-anchor="start" style="mix-blend-mode: normal"><tspan x="0" dy="0">G</tspan></text><text transform="translate(184.805,93.87035) scale(2.77746,2.77746)" font-size="22" xml:space="preserve" fill="#e94635" fill-rule="nonzero" stroke="none" stroke-width="1" stroke-linecap="butt" stroke-linejoin="miter" stroke-miterlimit="10" stroke-dasharray="" stroke-dashoffset="0" font-family="Serif" font-weight="400" text-anchor="start" style="mix-blend-mode: normal"><tspan x="0" dy="0">a</tspan></text><text transform="translate(218.555,94.87035) scale(2.77746,2.77746)" font-size="22" xml:space="preserve" fill="#fac000" fill-rule="nonzero" stroke="none" stroke-width="1" stroke-linecap="butt" stroke-linejoin="miter" stroke-miterlimit="10" stroke-dasharray="" stroke-dashoffset="0" font-family="Serif" font-weight="400" text-anchor="start" style="mix-blend-mode: normal"><tspan x="0" dy="0">m</tspan></text><text transform="translate(266.255,95.77035) scale(2.77746,2.77746)" font-size="22" xml:space="preserve" fill="#4087f4" fill-rule="nonzero" stroke="none" stroke-width="1" stroke-linecap="butt" stroke-linejoin="miter" stroke-miterlimit="10" stroke-dasharray="" stroke-dashoffset="0" font-family="Serif" font-weight="400" text-anchor="start" style="mix-blend-mode: normal"><tspan x="0" dy="0">e</tspan></text><path d="M162.17557,70.31248c0,-1.38071 1.11929,-2.5 2.5,-2.5c1.38071,0 2.5,1.11929 2.5,2.5c0,1.38071 -1.11929,2.5 -2.5,2.5c-1.38071,0 -2.5,-1.11929 -2.5,-2.5z" fill="#ff6666" stroke-width="0.5"/><path d="M197.17557,87.31248c0,-1.38071 1.11929,-2.5 2.5,-2.5c1.38071,0 2.5,1.11929 2.5,2.5c0,1.38071 -1.11929,2.5 -2.5,2.5c-1.38071,0 -2.5,-1.11929 -2.5,-2.5z" fill="#ff6666" stroke-width="0.5"/><path d="M230.17557,79.31248c0,-1.38071 1.11929,-2.5 2.5,-2.5c1.38071,0 2.5,1.11929 2.5,2.5c0,1.38071 -1.11929,2.5 -2.5,2.5c-1.38071,0 -2.5,-1.11929 -2.5,-2.5z" fill="#ff6666" stroke-width="0.5"/><path d="M248.17557,78.31248c0,-1.38071 1.11929,-2.5 2.5,-2.5c1.38071,0 2.5,1.11929 2.5,2.5c0,1.38071 -1.11929,2.5 -2.5,2.5c-1.38071,0 -2.5,-1.11929 -2.5,-2.5z" fill="#ff6666" stroke-width="0.5"/><path d="M265.67557,111.81248c2.5,0 2.5,2.5 2.5,2.5l-0.12829,1.79057c-0.53465,1.32573 -0.6206,2.93968 -1.60394,3.9772c-0.85097,0.89786 -2.40014,0.71011 -3.45344,1.35886c-0.80276,0.49443 -1.18946,1.51843 -2,2c-1.02018,0.60611 -2.26852,0.7119 -3.35762,1.18307c-2.91876,1.26272 -4.41931,2.62129 -7.55625,3.15802c-3.89479,0.66641 -8.11921,-0.64938 -12,0c-4.04976,0.67766 -7.94344,2.34575 -12,3c-3.89931,0.62889 -8.44504,0.03228 -12.40045,0.03228c-2.2553,-0.01568 -4.4608,0.66978 -6.69455,0.98127c-3.93406,0.5486 -9.75326,0.64321 -13.70591,-0.01355c-3.08423,-0.51246 -6.41762,-2.10518 -9.39011,-3.09601c-0.66014,-0.22004 -6.16814,-2.03616 -6.52376,-2.24508c-0.81291,-0.47756 -1.19155,-1.51493 -2,-2c-0.90387,-0.54233 -2.10249,-0.4472 -3,-1c-1.66221,-1.02378 -2.58664,-2.96975 -4.16846,-4.11383c-3.05269,-2.20791 -6.73114,-3.81834 -9.90397,-5.93268c0,0 -2.08013,-1.38675 -0.69338,-3.46688c1.38675,-2.08012 3.46688,-0.69338 3.46688,-0.69338c3.23369,2.15672 6.98834,3.79704 10.09603,6.06732c1.46891,1.07309 2.25856,2.97242 3.83154,3.88618c0.91146,0.52948 2.09613,0.45767 3,1c0.80845,0.48507 1.19708,1.50584 2,2c1.63245,1.0047 3.65776,1.14876 5.47624,1.75492c2.71652,0.90551 5.78927,2.432 8.60989,2.90398c6.52629,1.09206 13.18591,-0.99594 19.59955,-1.03228c3.65547,0 8.00782,0.653 11.59954,0.03228c4.05367,-0.70056 7.93392,-2.3244 12,-3c4.74539,-0.78848 9.91471,1.15553 14.44375,-0.84198c2.20048,-0.97052 4.58629,-1.56932 6.64238,-2.81692c0.80603,-0.48909 1.18477,-1.52642 2,-2c0.7569,-0.43969 1.89763,-0.05367 2.54656,-0.64114c0.50935,-0.46112 0.26404,-1.34854 0.39606,-2.0228l-0.12829,-0.20943c0,0 0,-2.5 2.5,-2.5z" fill="#ff6666" stroke-width="0.5"/><path d="M277.17557,75.31248c0,-1.38071 1.11929,-2.5 2.5,-2.5c1.38071,0 2.5,1.11929 2.5,2.5c0,1.38071 -1.11929,2.5 -2.5,2.5c-1.38071,0 -2.5,-1.11929 -2.5,-2.5z" fill="#ff6666" stroke-width="0.5"/></g></g></svg>