<svg version="1.1" xmlns="http://www.w3.org/2000/svg" xmlns:xlink="http://www.w3.org/1999/xlink" width="45" height="45" viewBox="0,0,45,45"><defs><radialGradient cx="247.7275" cy="171.1396" r="38.5299" gradientUnits="userSpaceOnUse" id="color-1"><stop offset="0" stop-color="#80f4ff"/><stop offset="1" stop-color="#0077ff"/></radialGradient></defs><g transform="translate(-218,-158)"><g data-paper-data="{&quot;isPaintingLayer&quot;:true}" fill-rule="nonzero" stroke-linejoin="miter" stroke-miterlimit="10" stroke-dasharray="" stroke-dashoffset="0" style="mix-blend-mode: normal"><path d="M218,180.5c0,-12.42641 10.07359,-22.5 22.5,-22.5c12.42641,0 22.5,10.07359 22.5,22.5c0,12.42641 -10.07359,22.5 -22.5,22.5c-12.42641,0 -22.5,-10.07359 -22.5,-22.5z" fill="url(#color-1)" stroke="none" stroke-width="1" stroke-linecap="butt"/><path d="M241.28762,182.17411c0,3.83045 -2.94969,6.93862 -6.59762,6.96412c0.00038,-0.01801 0.00057,-0.03608 0.00057,-0.05418c0,-1.38071 -1.11929,-2.5 -2.5,-2.5c-0.75364,0 -1.42939,0.33347 -1.88774,0.86091c-1.40921,-1.27704 -2.30093,-3.16478 -2.30093,-5.27086c0,-3.84627 2.97411,-6.96429 6.64286,-6.96429c3.66875,0 6.64285,3.11802 6.64285,6.96429z" fill="#daf9ff" stroke="#000000" stroke-width="0.5" stroke-linecap="butt"/><path d="M234.2162,191.49553l12.42857,0.21428l-9.42857,5.78572z" fill="#ff0000" stroke="#000000" stroke-width="0.5" stroke-linecap="round"/><path d="M235.93048,194.70982h6.21429" fill="none" stroke="#000000" stroke-width="0.5" stroke-linecap="round"/><path d="M239.94217,194.72013l0.00472,-0.00055l-0.00074,-0.00148l0.22627,-0.11313c0.03474,-0.01829 0.07432,-0.02864 0.11631,-0.02864c0.12867,0 0.23463,0.09721 0.24847,0.22218l0.07178,0.01605c0,0 0.24254,0.06063 0.1819,0.30317c-0.05064,0.20256 -0.22818,0.19366 -0.28531,0.18521c-0.00847,0.08413 -0.20924,0.17724 -0.68127,0.2782c-0.26347,0.13417 -1.26179,0.87709 -1.89489,1.15528c0.00854,0.02519 0.01317,0.0522 0.01317,0.08028c0,0.07652 -0.03438,0.14501 -0.08854,0.19087l-0.20069,0.17202l-0.02212,-0.02581l-0.05384,0.07047c-0.33582,-0.0619 -0.44292,-0.18951 -0.40054,-0.35338c-0.18642,-0.11361 -0.41541,-0.38231 -0.5895,-0.69063c-0.02989,-0.03178 -0.05155,-0.07138 -0.06159,-0.1154c-0.12992,-0.25829 -0.21524,-0.5335 -0.20291,-0.76279c-0.019,0.00158 -0.03682,0.00301 -0.0534,0.00429c0,0 -0.24926,0.01918 -0.26844,-0.23009c-0.01917,-0.24927 0.23009,-0.26844 0.23009,-0.26844c0.10867,-0.00831 0.26682,-0.01191 0.459,-0.01104c0.76746,-0.38398 2.27903,-0.13739 3.23116,-0.06532c0.00699,-0.00376 0.01396,-0.00753 0.02093,-0.01133zM237.486,196.19155c-0.00341,-0.00014 -0.00682,-0.00029 -0.01022,-0.00044c0.01712,0.05942 0.0208,0.07357 0.00816,0.00359c0.00069,-0.00105 0.00137,-0.0021 0.00206,-0.00315zM238.46106,195.37821c0.00054,-0.00027 0.0011,-0.00055 0.00164,-0.00083c-0.00059,0 -0.00117,0 -0.00176,0c0.00003,0.00027 0.00008,0.00055 0.00011,0.00083z" fill="#c70000" stroke="none" stroke-width="0.5" stroke-linecap="butt"/><path d="M238.29403,184.06681c0,1.62829 -1.15788,2.94827 -2.58621,2.94827c-1.06035,0 -1.97165,-0.72746 -2.37083,-1.76848c0.12525,-0.02175 0.2441,-0.06214 0.35359,-0.11821c0.17066,0.08739 0.36405,0.1367 0.56896,0.1367c0.69036,0 1.25,-0.55964 1.25,-1.25c0,-0.69036 -0.55964,-1.25 -1.25,-1.25c-0.20491,0 -0.3983,0.04931 -0.56896,0.1367c-0.09816,-0.05026 -0.20384,-0.08793 -0.31491,-0.11086c0.41727,-0.98942 1.30475,-1.67238 2.33215,-1.67238c1.42833,0 2.58621,1.31999 2.58621,2.94827z" fill="#00084e" stroke="none" stroke-width="0" stroke-linecap="butt"/><path d="M248.23097,175.65809c3.66875,0 6.64286,3.11802 6.64286,6.96429c0,2.10608 -0.89172,3.99382 -2.30093,5.27086c-0.45836,-0.52744 -1.13411,-0.86091 -1.88774,-0.86091c-1.38071,0 -2.5,1.11929 -2.5,2.5c0,0.0181 0.00019,0.03617 0.00057,0.05418c-3.64793,-0.02551 -6.59762,-3.13367 -6.59762,-6.96412c0,-3.84627 2.97411,-6.96429 6.64285,-6.96429z" data-paper-data="{&quot;index&quot;:null}" fill="#daf9ff" stroke="#000000" stroke-width="0.5" stroke-linecap="butt"/><path d="M250.63886,184.20474c0,1.62829 -1.15788,2.94828 -2.58621,2.94828c-1.06035,0 -1.97165,-0.72746 -2.37083,-1.76848c0.12525,-0.02175 0.2441,-0.06215 0.35359,-0.11822c0.17066,0.08739 0.36405,0.1367 0.56896,0.1367c0.69036,0 1.25,-0.55964 1.25,-1.25c0,-0.69036 -0.55964,-1.25 -1.25,-1.25c-0.20491,0 -0.3983,0.04931 -0.56896,0.1367c-0.09816,-0.05026 -0.20384,-0.08793 -0.31491,-0.11086c0.41727,-0.98942 1.30475,-1.67239 2.33215,-1.67239c1.42833,0 2.58621,1.31999 2.58621,2.94827z" fill="#00084e" stroke="none" stroke-width="0" stroke-linecap="butt"/><path d="M230.59575,188.67026c0,-0.13807 0.11193,-0.25 0.25,-0.25c0.13807,0 0.25,0.11193 0.25,0.25c0,0.13807 -0.11193,0.25 -0.25,0.25c-0.13807,0 -0.25,-0.11193 -0.25,-0.25z" fill="#00084e" stroke="none" stroke-width="0.5" stroke-linecap="butt"/><path d="M232.14748,188.15302c0,-0.13807 0.11193,-0.25 0.25,-0.25c0.13807,0 0.25,0.11193 0.25,0.25c0,0.13807 -0.11193,0.25 -0.25,0.25c-0.13807,0 -0.25,-0.11193 -0.25,-0.25z" fill="#00084e" stroke="none" stroke-width="0.5" stroke-linecap="butt"/><path d="M233.28541,189.08405c0,-0.13807 0.11193,-0.25 0.25,-0.25c0.13807,0 0.25,0.11193 0.25,0.25c0,0.13807 -0.11193,0.25 -0.25,0.25c-0.13807,0 -0.25,-0.11193 -0.25,-0.25z" fill="#00084e" stroke="none" stroke-width="0.5" stroke-linecap="butt"/><path d="M249.11299,188.9806c0,-0.13807 0.11193,-0.25 0.25,-0.25c0.13807,0 0.25,0.11193 0.25,0.25c0,0.13807 -0.11193,0.25 -0.25,0.25c-0.13807,0 -0.25,-0.11193 -0.25,-0.25z" fill="#00084e" stroke="none" stroke-width="0.5" stroke-linecap="butt"/><path d="M250.14748,188.25647c0,-0.13807 0.11193,-0.25 0.25,-0.25c0.13807,0 0.25,0.11193 0.25,0.25c0,0.13807 -0.11193,0.25 -0.25,0.25c-0.13807,0 -0.25,-0.11193 -0.25,-0.25z" fill="#00084e" stroke="none" stroke-width="0.5" stroke-linecap="butt"/><path d="M251.18196,188.9806c0,-0.13807 0.11193,-0.25 0.25,-0.25c0.13807,0 0.25,0.11193 0.25,0.25c0,0.13807 -0.11193,0.25 -0.25,0.25c-0.13807,0 -0.25,-0.11193 -0.25,-0.25z" fill="#00084e" stroke="none" stroke-width="0.5" stroke-linecap="butt"/></g></g></svg>