<svg xmlns="http://www.w3.org/2000/svg" xmlns:xlink="http://www.w3.org/1999/xlink" version="1.1" width="504.83495010829137" height="432.094135899307" viewBox="-0.8924689461596962 -0.9424689506300445 504.83495010829137 432.094135899307">
  <!-- Exported by Scratch - http://scratch.mit.edu/ -->
  <path id="ID0.5750290127471089" fill="#E5E5E5" stroke="none" d="M 15 0 L 495 0 L 495 330 L 15 330 L 15 0 Z " stroke-width="1"/>
  <path id="ID0.005303007550537586" fill="#000000" stroke="none" d="M 0.05 322.3592 L 503 322.3592 L 503 430.2092 L 0.05 430.2092 L 0.05 322.3592 Z " stroke-width="1.884937901260089"/>
  <text id="ID0.270583706907928" fill="#666666" text-anchor="start" font-family="Sans Serif" font-size="22" transform="matrix(0.759372 0 0 0.759372 90.7687 143.722)" stroke-width="1" alignment-baseline="text-before-edge" xml:space="preserve"><tspan x="0" style="white-space: pre" dy="1.13em">Sorry, this app is in work, thanks to wait</tspan></text>
  <text id="ID0.44819632498547435" fill="#4087F4" text-anchor="start" font-family="Serif" font-size="22" transform="matrix(2.77746 0 0 2.77746 155.555 16.7902)" stroke-width="1" alignment-baseline="text-before-edge" xml:space="preserve"><tspan x="0" style="white-space: pre" dy="1.25em">G</tspan></text>
  <text id="ID0.44819632498547435" fill="#E94635" text-anchor="start" font-family="Serif" font-size="22" transform="matrix(2.77746 0 0 2.77746 199.805 17.4902)" stroke-width="1" alignment-baseline="text-before-edge" xml:space="preserve"><tspan x="0" style="white-space: pre" dy="1.25em">o</tspan></text>
  <text id="ID0.44819632498547435" fill="#FAC000" text-anchor="start" font-family="Serif" font-size="22" transform="matrix(2.77746 0 0 2.77746 233.555 18.4902)" stroke-width="1" alignment-baseline="text-before-edge" xml:space="preserve"><tspan x="0" style="white-space: pre" dy="1.25em">o</tspan></text>
  <text id="ID0.44819632498547435" fill="#4087F4" text-anchor="start" font-family="Serif" font-size="22" transform="matrix(2.77746 0 0 2.77746 266.255 19.3902)" stroke-width="1" alignment-baseline="text-before-edge" xml:space="preserve"><tspan x="0" style="white-space: pre" dy="1.25em">g</tspan></text>
  <text id="ID0.44819632498547435" fill="#35A951" text-anchor="start" font-family="Serif" font-size="22" transform="matrix(2.77746 0 0 2.77746 298.955 17.7402)" stroke-width="1" alignment-baseline="text-before-edge" xml:space="preserve"><tspan x="0" style="white-space: pre" dy="1.25em">l</tspan></text>
  <text id="ID0.44819632498547435" fill="#E94635" text-anchor="start" font-family="Serif" font-size="22" transform="matrix(2.75775 -0.330333 0.330333 2.75775 310.894 21.2083)" stroke-width="1" alignment-baseline="text-before-edge" xml:space="preserve"><tspan x="0" style="white-space: pre" dy="1.25em">e</tspan></text>
</svg>