<svg xmlns="http://www.w3.org/2000/svg" xmlns:xlink="http://www.w3.org/1999/xlink" version="1.1" width="505.04563072056453" height="435.30481651158016" viewBox="-0.9978092522962823 -1.0478092567666306 505.04563072056453 435.30481651158016">
  <defs>
    <linearGradient id="grad_1" y2="1" x2="0">
      <stop offset="0" stop-color="#1C1C1C" stop-opacity="1"/>
      <stop offset="1" stop-color="#3D3D3D" stop-opacity="1"/>
    </linearGradient>
  <linearGradient id="grad_1-.0063897371292114,0,0,0.9105430245399475,15,40" y2="325" x2="15" x1="15" y1="40" gradientUnits="userSpaceOnUse">
      <stop offset="0" stop-color="#1C1C1C" stop-opacity="1"/>
      <stop offset="1" stop-color="#3D3D3D" stop-opacity="1"/>
    </linearGradient></defs>
  <!-- Exported by Scratch - http://scratch.mit.edu/ -->
  <path id="ID0.4067903934046626" fill="url(#grad_1-.0063897371292114,0,0,0.9105430245399475,15,40)" stroke="none" d="M 15 40 L 498.0671 40 L 498.0671 325 L 15 325 L 15 40 Z " stroke-width="0.9596637178036269"/>
  <path id="ID0.005303007550537586" fill="#000000" stroke="none" d="M 0.05 325.3592 L 503 325.3592 L 503 433.2092 L 0.05 433.2092 L 0.05 325.3592 Z " stroke-width="1.884937901260089"/>
  <path id="ID0.5793730355799198" fill="#161616" stroke="none" d="M 13 0 L 497 0 L 497 60 L 13 60 L 13 0 Z " stroke-width="1.182056254758139"/>
  <text id="ID0.8395644789561629" fill="#FFFFFF" text-anchor="start" font-family="Sans Serif" font-size="22" transform="matrix(0.589255 0 0 0.589255 29.1785 28.7322)" stroke-width="1" alignment-baseline="text-before-edge" xml:space="preserve"><tspan x="0" style="white-space: pre" dy="1.13em">Settings</tspan></text>
  <path id="ID0.6310419528745115" fill="#FFFFFF" stroke="#FFFFFF" stroke-width="2.0956185135332612" stroke-linecap="round" d="M 62.1138 80.9317 L 59.9506 80.0475 L 53.9601 79.9002 L 53.6273 79.0651 L 55.4023 80.2931 L 54.0711 77.5423 L 54.7367 77.4932 L 57.3991 79.2616 L 51.7414 77.4441 L 48.0251 78.5248 L 49.6891 77.9844 L 52.6844 79.3107 L 47.6923 79.8019 L 55.014 78.623 L 55.9015 77.4441 L 58.8412 77.9353 L 61.0045 78.8195 L 53.7382 77.0511 L 46.5275 78.8195 L 44.7525 79.8019 L 53.9047 91.3454 L 62.1138 80.9317 Z "/>
  <text id="ID0.992391949519515" fill="#FFFFFF" text-anchor="start" font-family="Sans Serif" font-size="22" transform="matrix(0.521742 0 0 0.50398 73.8935 76.1881)" stroke-width="1" alignment-baseline="text-before-edge" xml:space="preserve"><tspan x="0" style="white-space: pre" dy="1.13em">Wi-Fi</tspan></text>
  <path id="ID0.5348235950805247" fill="none" stroke="#FFFFFF" stroke-width="2" stroke-linecap="round" d="M 40 113 L 469 113 "/>
</svg>